<mxfile host="app.diagrams.net" modified="2024-05-17T18:08:32.730Z" agent="Mozilla/5.0 (Windows NT 10.0; Win64; x64) AppleWebKit/537.36 (KHTML, like Gecko) Chrome/125.0.0.0 Safari/537.36" etag="H0S7oowC0a4eew57EIVh" version="24.4.4" type="github">
  <diagram name="PÃ¡gina-1" id="M8rHbVbrYMYfLh5zIARj">
    <mxGraphModel dx="1050" dy="522" grid="1" gridSize="10" guides="1" tooltips="1" connect="1" arrows="1" fold="1" page="1" pageScale="1" pageWidth="827" pageHeight="1169" math="0" shadow="0">
      <root>
        <mxCell id="0" />
        <mxCell id="1" parent="0" />
        <mxCell id="LpT6IMYGdNzYsHie72CI-1" value="" style="image;aspect=fixed;perimeter=ellipsePerimeter;html=1;align=center;shadow=0;dashed=0;spacingTop=3;image=img/lib/active_directory/internet_cloud.svg;" vertex="1" parent="1">
          <mxGeometry x="40" y="199.5" width="60" height="37.8" as="geometry" />
        </mxCell>
        <mxCell id="LpT6IMYGdNzYsHie72CI-4" value="" style="image;aspect=fixed;html=1;points=[];align=center;fontSize=12;image=img/lib/azure2/integration/API_Management_Services.svg;" vertex="1" parent="1">
          <mxGeometry x="190" y="200" width="50" height="46.16" as="geometry" />
        </mxCell>
        <mxCell id="LpT6IMYGdNzYsHie72CI-5" value="" style="editableCssRules=.*;html=1;shape=image;verticalLabelPosition=bottom;labelBackgroundColor=#ffffff;verticalAlign=top;aspect=fixed;imageAspect=0;image=data:image/svg+xml,PHN2ZyB4bWxucz0iaHR0cDovL3d3dy53My5vcmcvMjAwMC9zdmciIHhtbG5zOnY9Imh0dHBzOi8vdmVjdGEuaW8vbmFubyIgd2lkdGg9IjE2LjAwMDAwMTkwNzM0ODYzMyIgaGVpZ2h0PSIxNi4wMDAwMDE5MDczNDg2MzMiIHZpZXdCb3g9Ii03LjE4NzExMDA2NTA3Mzg4N2UtMTMgLTIuNDg2ODk5MTA5MjkyMjI5N2UtMTUgMTYuMDAwMDAxOTA3MzQ4NjMzIDE2LjAwMDAwMTkwNzM0ODYzMyI+JiN4YTsJPHN0eWxlIHR5cGU9InRleHQvY3NzIj4mI3hhOwkuc3Qwe2ZpbGw6IzQyODVmNDt9JiN4YTsJPC9zdHlsZT4mI3hhOwk8cGF0aCBjbGFzcz0ic3QwIiBkPSJNOS44NCA1Ljc3SDYuMTZhLjM5LjM5IDAgMCAwLS4zOS4zOXYzLjY4YS4zOS4zOSAwIDAgMCAuMzkuMzloMy42N2EuMzkuMzkgMCAwIDAgLjM5LS4zOVY2LjE2YS4zOS4zOSAwIDAgMC0uMzktLjM5bTUuODItLjI5YS4zNS4zNSAwIDAgMCAuMzUtLjM1di0uNTdhLjM1LjM1IDAgMCAwLS4zNS0uMzVoLTEuNzlWMi41NGEuMzkuMzkgMCAwIDAtLjM5LS4zOUgxMS44Vi4zNWEuMzUuMzUgMCAwIDAtLjM1LS4zNWgtLjU4YS4zNS4zNSAwIDAgMC0uMzUuMzV2MS43OUg4LjYzVi4zNUEuMzUuMzUgMCAwIDAgOC4yOSAwaC0uNThhLjM1LjM1IDAgMCAwLS4zNS4zNXYxLjc5SDUuNDhWLjM1QS4zNS4zNSAwIDAgMCA1LjEzIDBoLS41OGEuMzUuMzUgMCAwIDAtLjM1LjM1djEuNzlIMi41M2EuMzkuMzkgMCAwIDAtLjM5LjM5VjQuMkguMzVhLjM1LjM1IDAgMCAwLS4zNS4zNXYuNThhLjM1LjM1IDAgMCAwIC4zNS4zNWgxLjc5djEuODhILjM1YS4zNS4zNSAwIDAgMC0uMzUuMzV2LjU4YS4zNS4zNSAwIDAgMCAuMzUuMzVoMS43OXYxLjg5SC4zNWEuMzUuMzUgMCAwIDAtLjM1LjM1di41N2EuMzUuMzUgMCAwIDAgLjM1LjM1aDEuNzl2MS42N2EuMzkuMzkgMCAwIDAgLjM5LjM5SDQuMnYxLjc5YS4zNS4zNSAwIDAgMCAuMzUuMzVoLjU4YS4zNS4zNSAwIDAgMCAuMzUtLjM1di0xLjc5aDEuODh2MS43OWEuMzUuMzUgMCAwIDAgLjM1LjM1aC41OGEuMzUuMzUgMCAwIDAgLjM1LS4zNXYtMS43OWgxLjg5djEuNzlhLjM1LjM1IDAgMCAwIC4zNS4zNWguNTdhLjM1LjM1IDAgMCAwIC4zNS0uMzV2LTEuNzloMS42OGEuMzkuMzkgMCAwIDAgLjM5LS4zOVYxMS44aDEuNzlhLjM1LjM1IDAgMCAwIC4zNC0uMzV2LS41N2EuMzUuMzUgMCAwIDAtLjM1LS4zNWgtMS43OVY4LjY0aDEuNzlhLjM1LjM1IDAgMCAwIC4zNS0uMzV2LS41OGEuMzUuMzUgMCAwIDAtLjM1LS4zNWgtMS43OVY1LjQ4em0tMy4xMSA3LjA3SDMuNDVWMy40Nmg5LjA5eiIvPiYjeGE7PC9zdmc+;" vertex="1" parent="1">
          <mxGeometry x="340" y="200" width="40.5" height="40.5" as="geometry" />
        </mxCell>
        <mxCell id="LpT6IMYGdNzYsHie72CI-7" style="edgeStyle=orthogonalEdgeStyle;rounded=0;orthogonalLoop=1;jettySize=auto;html=1;exitX=1;exitY=0.5;exitDx=0;exitDy=0;entryX=-0.056;entryY=0.442;entryDx=0;entryDy=0;entryPerimeter=0;" edge="1" parent="1" source="LpT6IMYGdNzYsHie72CI-1" target="LpT6IMYGdNzYsHie72CI-4">
          <mxGeometry relative="1" as="geometry" />
        </mxCell>
      </root>
    </mxGraphModel>
  </diagram>
</mxfile>
